<?xml version="1.0" encoding="UTF-8" standalone="no"?>
<!-- Created with Inkscape (http://www.inkscape.org/) -->

<svg
   width="300"
   height="300"
   viewBox="0 0 300 300"
   version="1.1"
   id="svg1"
   sodipodi:docname="logo.svg"
   inkscape:version="1.3.2 (091e20e, 2023-11-25, custom)"
   xmlns:inkscape="http://www.inkscape.org/namespaces/inkscape"
   xmlns:sodipodi="http://sodipodi.sourceforge.net/DTD/sodipodi-0.dtd"
   xmlns="http://www.w3.org/2000/svg"
   xmlns:svg="http://www.w3.org/2000/svg">
  <sodipodi:namedview
     id="namedview1"
     pagecolor="#ffffff"
     bordercolor="#000000"
     borderopacity="0.25"
     inkscape:showpageshadow="2"
     inkscape:pageopacity="0.0"
     inkscape:pagecheckerboard="0"
     inkscape:deskcolor="#d1d1d1"
     inkscape:document-units="px"
     showborder="false"
     inkscape:zoom="2.59"
     inkscape:cx="149.80695"
     inkscape:cy="150"
     inkscape:window-width="1920"
     inkscape:window-height="991"
     inkscape:window-x="-9"
     inkscape:window-y="-9"
     inkscape:window-maximized="1"
     inkscape:current-layer="layer1" />
  <defs
     id="defs1" />
  <g
     inkscape:label="Layer 1"
     inkscape:groupmode="layer"
     id="layer1">
    <path
       id="text1"
       style="font-weight:900;font-size:216.683px;line-height:0px;font-family:Lato;-inkscape-font-specification:'Lato Heavy';letter-spacing:60.942px;opacity:1;stroke-width:78.9812;stroke-linecap:round;stroke-linejoin:round;fill:#ff0066"
       d="m 79.947345,56.17924 c -8.095463,1.139428 -14.612964,8.574257 -14.612964,16.669731 0,8.095475 6.517501,13.695644 14.612964,12.556229 l 65.600175,-9.233174 c 8.09546,-1.139415 14.61297,4.460723 14.61297,12.556214 0,8.09546 -6.51751,15.52776 -14.61297,16.66718 l -20.77406,2.92393 c -8.09548,1.13943 -14.61297,8.57428 -14.61297,16.66974 0,8.09547 6.51749,13.69564 14.61297,12.55621 l 20.77406,-2.92393 12.02601,-1.69263 c 8.09551,-1.13945 14.61298,4.46072 14.61298,12.5562 0,8.09546 -6.51747,15.53029 -14.61298,16.66974 l -12.02601,1.69264 -53.574154,7.54052 -33.865735,4.76656 c -8.095472,1.13943 -14.612971,8.57423 -14.612971,16.66972 0,8.09546 6.517499,13.69563 14.612971,12.5562 l 38.505554,-5.41961 48.934335,-6.88747 16.66581,-2.34569 c 8.09551,-1.13943 14.61298,4.46072 14.61298,12.55621 0,8.09546 -6.51747,15.5303 -14.61298,16.66973 l -16.66581,2.34569 -16.13426,2.27089 c -8.09549,1.13943 -14.61296,8.57427 -14.61296,16.66973 0,8.09546 6.51747,13.69564 14.61296,12.55621 l 32.80007,-4.61658 30.7928,-4.33404 v -68.38202 l 24.71271,-3.47828 c 14.1347,-1.98945 26.3508,-5.3914 36.64759,-10.21052 10.39041,-4.92593 18.95511,-10.90531 25.69483,-17.93841 6.73972,-7.0331 11.74677,-15.04061 15.02304,-24.02001 3.27624,-8.9794 4.9157,-18.5705 4.9157,-28.77368 0,-9.454344 -1.59131,-18.030723 -4.77397,-25.726584 -3.18262,-7.695903 -8.14408,-14.064712 -14.8838,-19.106983 -6.64613,-5.055429 -15.16521,-8.536552 -25.55562,-10.44397 -10.29679,-2.014207 -22.65225,-2.005866 -37.06777,0.0231 l -72.17132,10.158043 z m 113.058785,19.610809 24.71271,-3.478296 c 5.99086,-0.843208 11.13981,-0.820397 15.44575,0.07125 4.39954,0.878484 8.00279,2.525187 10.81101,4.938152 2.90183,2.306171 5.05567,5.27942 6.45979,8.91967 1.4041,3.640281 2.10601,7.801003 2.10601,12.481377 0,10.577628 -2.71639,19.197788 -8.1456,25.859208 -5.4292,6.6614 -14.3208,10.85985 -26.67696,12.59898 l -24.71271,3.47829 z M 37.376603,120.62038 c -8.095475,1.13942 -14.612971,8.57427 -14.612971,16.66973 0,8.09547 6.517496,13.69564 14.612971,12.55623 l 52.956516,-7.45358 c 8.095475,-1.13943 14.612961,-8.57427 14.612961,-16.66975 0,-8.09546 -6.517486,-13.69564 -14.612961,-12.55621 l -10.385774,1.46179 z M 14.612973,240.72811 C 6.5174978,241.86754 2e-6,249.30236 2e-6,257.39782 c 0,8.09546 6.5174958,13.69566 14.612971,12.55623 l 32.80008,-4.61658 c 8.095474,-1.13943 14.61297,-8.57428 14.61297,-16.66974 0,-8.09546 -6.517496,-13.69563 -14.61297,-12.5562 z m 65.600168,-9.23316 c -8.095482,1.13943 -14.612977,8.57425 -14.612977,16.66971 0,8.09546 6.517495,13.69566 14.612977,12.55623 l 16.400044,-2.3083 c 8.095465,-1.13943 14.612965,-8.57428 14.612965,-16.66974 0,-8.09546 -6.5175,-13.69563 -14.612965,-12.5562 z" />
  </g>
</svg>
